<?xml version="1.0" standalone="no"?>
<!DOCTYPE svg PUBLIC "-//W3C//DTD SVG 20010904//EN"
 "http://www.w3.org/TR/2001/REC-SVG-20010904/DTD/svg10.dtd">
<svg version="1.0" xmlns="http://www.w3.org/2000/svg"
 width="4072.000000pt" height="3288.000000pt" viewBox="0 0 4072.000000 3288.000000"
 preserveAspectRatio="xMidYMid meet">

<g transform="translate(0.000000,3288.000000) scale(0.100000,-0.100000)"
fill="#000000" stroke="none">
<path d="M20135 29973 c-88 -7 -279 -24 -425 -37 -146 -14 -302 -28 -348 -31
-45 -3 -117 -12 -160 -19 -42 -8 -192 -35 -333 -60 -286 -51 -449 -90 -560
-135 -216 -87 -481 -202 -529 -230 -85 -50 -624 -314 -725 -355 -152 -62 -136
-53 -428 -249 -42 -29 -134 -85 -205 -125 -148 -85 -295 -188 -564 -397 -153
-119 -233 -191 -389 -350 -108 -110 -216 -223 -240 -252 -24 -28 -48 -52 -52
-52 -5 -1 -30 -25 -55 -53 -112 -127 -266 -269 -318 -294 -69 -32 -110 -75
-189 -194 -35 -52 -95 -129 -134 -170 -63 -67 -102 -122 -204 -287 -18 -28
-67 -100 -109 -160 -81 -114 -83 -119 -366 -698 -184 -376 -197 -409 -252
-643 -21 -93 -159 -522 -181 -565 -6 -12 -24 -36 -40 -52 -16 -17 -39 -57 -53
-90 -53 -131 -180 -787 -233 -1209 -24 -189 -29 -1238 -6 -1347 15 -74 37
-129 51 -129 15 0 55 104 62 158 3 28 3 52 0 52 -4 0 -10 70 -13 155 l-5 156
38 37 c29 28 42 52 54 100 18 70 50 147 67 158 6 3 17 0 24 -7 10 -11 14 -60
16 -194 2 -243 21 -326 89 -393 60 -60 62 -64 95 -207 15 -66 38 -163 52 -215
13 -52 33 -133 44 -180 28 -120 85 -344 122 -485 l32 -120 55 -1 c65 -2 81 3
74 21 -3 7 0 16 6 20 16 10 4 97 -36 255 -43 165 -75 356 -109 645 -14 121
-33 262 -41 313 -16 93 -16 108 2 417 4 80 20 144 39 157 6 5 10 105 11 265 1
282 9 367 55 590 16 81 50 247 74 368 132 653 231 980 412 1355 76 158 99 218
114 309 6 36 15 73 20 81 13 25 9 -26 -12 -127 -21 -103 -22 -115 -10 -93 5 8
16 56 25 105 23 124 35 166 57 197 11 14 19 30 19 35 0 5 9 16 20 26 11 9 20
26 20 36 0 24 16 36 24 19 3 -7 3 -3 0 10 -3 12 -1 22 4 22 6 0 35 44 67 98
133 228 181 299 417 617 260 351 289 386 483 584 518 529 826 775 1405 1126
80 48 171 104 202 124 220 140 289 180 417 242 79 39 223 102 320 140 97 38
187 75 201 80 28 12 222 83 285 104 265 89 1005 275 1207 304 143 21 238 28
664 51 226 12 967 5 1079 -11 39 -6 192 -23 340 -39 149 -16 302 -38 340 -49
39 -10 149 -38 245 -61 345 -82 867 -249 1080 -345 69 -31 172 -77 230 -101
215 -92 266 -122 391 -229 60 -51 163 -115 312 -194 159 -83 282 -175 467
-347 74 -69 242 -205 312 -253 26 -17 141 -126 256 -240 193 -193 300 -319
410 -483 18 -25 38 -53 46 -60 49 -50 314 -436 406 -593 29 -49 83 -135 119
-190 36 -55 81 -132 100 -170 19 -39 45 -90 57 -115 33 -67 114 -248 134 -300
52 -133 104 -257 114 -270 14 -18 46 -100 75 -190 25 -81 53 -320 45 -383 -8
-58 7 -113 78 -292 11 -27 25 -66 31 -85 6 -19 17 -44 25 -55 12 -18 13 -14 7
31 l-7 51 54 6 c45 5 56 3 71 -15 9 -11 17 -29 17 -40 0 -29 31 -118 41 -118
10 0 10 9 10 190 0 69 -7 164 -15 212 -9 48 -15 91 -14 95 0 5 -2 15 -5 23 -4
8 -29 87 -58 174 -30 94 -54 154 -59 146 -5 -7 -10 2 -14 25 -4 21 -31 108
-60 194 -103 303 -214 567 -315 746 -28 50 -51 93 -51 98 0 21 34 1 83 -48 30
-30 59 -55 65 -55 20 0 96 -110 162 -235 18 -33 40 -73 50 -90 10 -16 50 -100
89 -186 38 -87 82 -174 96 -194 14 -21 25 -43 26 -49 3 -52 25 -112 50 -141
10 -11 34 -65 54 -120 20 -55 45 -121 56 -147 10 -26 19 -56 19 -67 0 -12 3
-21 8 -21 4 0 12 -21 19 -47 9 -42 45 -131 74 -185 5 -10 9 -25 9 -35 0 -9 6
-24 14 -32 11 -14 20 -35 53 -131 3 -8 7 -28 9 -45 2 -16 7 -48 10 -70 4 -22
8 -56 9 -75 2 -19 6 -49 10 -66 5 -22 2 -34 -9 -43 -28 -24 -13 -222 22 -287
19 -36 41 -138 57 -269 28 -225 55 -467 61 -540 3 -38 9 -72 12 -75 4 -3 9
-34 11 -70 2 -36 7 -87 11 -115 11 -72 -8 -320 -35 -455 -20 -100 -23 -147
-24 -360 -1 -254 -14 -394 -51 -570 -11 -52 -27 -129 -35 -170 -8 -41 -25
-122 -39 -180 -14 -58 -34 -152 -46 -210 -28 -133 -122 -504 -156 -613 -33
-105 -112 -305 -151 -382 -17 -33 -43 -89 -58 -125 -15 -36 -35 -83 -45 -105
-10 -22 -35 -92 -55 -155 -42 -129 -77 -203 -141 -303 -24 -37 -44 -70 -44
-72 0 -3 -13 -23 -30 -46 -16 -22 -38 -59 -49 -82 -12 -23 -39 -64 -61 -92
-43 -53 -62 -82 -107 -158 -30 -51 -217 -305 -311 -422 -360 -448 -465 -566
-617 -694 -49 -41 -162 -139 -250 -217 -291 -258 -495 -404 -960 -689 -88 -54
-199 -124 -246 -157 -47 -32 -89 -58 -92 -58 -3 0 -23 -12 -44 -26 -128 -88
-696 -331 -1063 -455 -80 -28 -264 -79 -410 -114 -146 -36 -317 -79 -380 -96
-285 -75 -484 -102 -955 -130 -479 -27 -1005 -23 -1235 10 -80 11 -201 25
-270 31 -194 16 -279 30 -360 55 -79 25 -241 71 -475 135 -351 96 -731 231
-975 347 -52 25 -138 63 -190 85 -88 37 -143 72 -260 164 -71 56 -205 142
-271 174 -115 55 -238 142 -418 294 -285 242 -415 346 -430 346 -6 0 -45 37
-88 81 -43 45 -111 114 -152 153 -156 150 -215 219 -348 406 -37 52 -106 145
-153 205 -144 185 -224 296 -286 396 -32 54 -86 141 -119 194 -33 54 -70 115
-82 137 -12 21 -35 61 -52 88 -17 28 -31 53 -31 55 0 3 -20 38 -44 78 -74 122
-104 186 -213 452 -25 61 -49 115 -53 120 -18 22 -101 238 -115 300 -10 39
-15 106 -14 163 3 200 0 220 -77 439 -23 64 -52 113 -67 113 -2 0 -7 -9 -10
-19 -2 -10 -14 -24 -26 -30 -19 -10 -25 -8 -51 21 -16 18 -42 57 -57 88 -14
30 -32 67 -40 82 -7 14 -13 34 -13 44 0 14 -3 15 -12 6 -9 -9 -8 -34 2 -109 7
-54 12 -141 11 -194 -2 -110 4 -146 59 -339 23 -80 37 -123 51 -155 4 -11 22
-60 38 -110 16 -49 36 -103 45 -120 9 -16 16 -36 16 -43 0 -7 4 -20 9 -30 6
-9 21 -48 35 -87 99 -280 145 -392 240 -583 83 -166 91 -189 61 -184 -54 8
-86 26 -105 58 -12 18 -27 37 -34 41 -14 9 -40 54 -116 198 -29 55 -66 123
-81 151 -80 149 -162 318 -183 380 -13 38 -44 116 -68 174 -25 58 -65 164 -88
235 -24 72 -51 146 -61 165 -52 102 -93 204 -119 299 -17 58 -39 135 -50 171
-11 36 -23 81 -26 100 -11 58 -21 71 -52 64 -15 -4 -30 -10 -34 -13 -7 -6 18
-114 38 -171 3 -8 5 -15 4 -15 -1 0 4 -13 10 -30 7 -16 21 -66 32 -110 11 -44
24 -84 28 -90 6 -9 14 -35 25 -85 2 -8 11 -37 21 -65 44 -128 53 -154 74 -220
12 -38 30 -92 41 -120 79 -213 105 -279 134 -340 19 -38 43 -90 54 -115 11
-25 29 -61 40 -80 10 -19 44 -87 73 -150 172 -366 173 -368 292 -590 79 -149
141 -238 244 -354 32 -37 78 -101 102 -144 24 -42 81 -126 126 -187 45 -60
109 -150 142 -198 33 -49 92 -125 130 -170 79 -91 344 -354 527 -522 164 -151
236 -223 273 -271 33 -43 40 -64 22 -64 -40 0 28 -75 105 -115 28 -14 57 -29
65 -34 8 -5 42 -21 75 -36 33 -15 86 -47 118 -71 79 -60 156 -114 162 -114 10
0 72 -46 134 -99 13 -12 28 -21 32 -21 5 0 33 -20 64 -45 31 -25 61 -43 67
-39 6 4 8 3 5 -4 -4 -6 28 -38 73 -74 61 -49 149 -99 374 -212 162 -82 298
-146 303 -143 5 3 17 -3 26 -14 9 -10 25 -19 34 -19 9 0 58 -20 108 -44 49
-24 119 -54 154 -66 35 -12 90 -39 122 -60 104 -67 697 -242 1134 -335 72 -15
162 -38 200 -50 39 -13 99 -29 135 -36 66 -13 97 -29 87 -47 -4 -5 -43 -2 -99
10 -51 10 -127 25 -168 32 -83 16 -232 48 -325 70 -156 37 -176 40 -185 26
-17 -28 -203 27 -358 106 -117 59 -132 64 -187 63 -34 -1 -96 8 -143 21 -87
23 -142 20 -142 -6 0 -8 17 -22 38 -30 20 -8 45 -19 54 -24 10 -6 27 -10 39
-10 21 0 60 -17 69 -31 15 -22 214 -56 367 -63 17 0 29 -4 26 -8 -2 -5 0 -8 5
-8 5 0 26 -16 46 -35 21 -19 42 -35 48 -35 18 0 68 -41 62 -51 -3 -5 3 -12 13
-15 10 -3 31 -12 46 -21 16 -8 38 -16 50 -18 54 -7 98 -18 103 -27 4 -6 -1 -8
-12 -5 -38 11 -100 18 -79 8 82 -37 274 -57 291 -30 13 21 -15 31 -103 37 -48
3 -82 7 -75 9 13 5 -42 47 -77 58 -28 8 -27 29 0 22 12 -3 78 -15 148 -27 69
-12 160 -28 201 -36 41 -9 91 -18 110 -20 19 -3 100 -14 180 -26 80 -11 230
-25 334 -32 126 -7 191 -15 193 -23 2 -6 -9 -14 -26 -18 -45 -10 -372 6 -548
27 -72 8 -100 8 -123 -2 -37 -15 -26 -35 23 -44 47 -8 241 -25 322 -27 39 -1
90 -7 115 -13 25 -6 59 -10 75 -9 17 1 278 5 580 8 611 8 714 13 1030 56 39 5
167 18 285 29 118 11 286 33 373 50 86 16 230 44 319 61 89 17 212 47 272 66
151 47 414 161 696 300 129 64 278 135 330 158 52 24 158 73 235 110 203 97
261 124 287 134 13 5 84 51 158 102 74 51 180 120 235 154 197 119 290 182
473 318 103 77 201 151 218 165 17 15 53 45 80 67 94 77 182 161 489 470 171
171 331 328 357 349 26 21 46 42 43 46 -7 11 5 40 16 40 5 0 9 -9 9 -20 0 -20
1 -20 28 -3 49 30 103 87 160 168 31 44 96 127 145 185 93 111 340 481 437
656 31 57 92 179 135 271 43 93 118 249 168 348 110 220 121 249 197 517 102
357 172 559 221 636 14 23 36 32 23 10 -5 -9 -4 -10 3 -3 33 34 176 766 228
1175 19 143 35 662 33 1040 -1 361 -30 570 -78 570 -5 0 -17 -24 -26 -52 -12
-40 -17 -110 -21 -277 l-6 -223 -37 -41 c-33 -35 -40 -51 -49 -115 -17 -114
-89 -218 -84 -121 1 19 5 68 8 109 8 84 -13 264 -40 345 -10 28 -30 62 -47 78
-55 51 -96 166 -153 431 -14 65 -32 134 -40 152 -8 19 -26 87 -40 152 -58 264
-67 303 -101 430 -19 73 -42 149 -51 170 -9 20 -17 48 -19 62 -3 24 -34 128
-59 200 -25 69 -56 166 -71 218 -8 29 -20 65 -28 80 -8 15 -29 72 -46 127 -45
140 -176 482 -229 600 -102 226 -148 322 -287 600 -89 177 -178 348 -199 381
-48 76 -145 195 -193 239 -21 18 -48 55 -61 82 -30 60 -96 162 -182 278 -36
50 -72 101 -79 115 -54 102 -210 270 -615 659 -303 291 -332 321 -356 368 -31
62 -92 120 -182 174 -39 24 -76 46 -82 48 -5 2 -44 30 -85 61 -41 32 -113 83
-160 114 -158 104 -317 216 -369 261 -28 24 -93 67 -144 96 -128 73 -561 291
-622 313 -27 10 -83 34 -124 52 -40 19 -94 39 -120 46 -25 6 -58 19 -73 30
-14 10 -29 18 -34 18 -4 0 -22 11 -40 25 -18 14 -36 25 -40 25 -4 0 -15 6 -23
14 -9 7 -54 23 -101 34 -47 11 -129 36 -182 55 -105 38 -368 109 -673 182
-104 26 -228 57 -275 71 -47 13 -125 27 -173 31 -92 6 -109 15 -84 40 13 13
26 13 122 -2 59 -9 109 -14 112 -12 3 3 24 -1 46 -9 90 -32 429 -104 489 -104
23 0 37 4 33 10 -3 6 1 7 10 4 8 -4 22 -1 29 5 10 9 16 9 21 1 9 -14 56 -9 73
7 17 17 5 36 -19 30 -11 -3 -19 -1 -19 3 0 33 -106 110 -151 110 -10 0 -20 4
-23 9 -9 13 -55 19 -59 8 -2 -6 -16 -2 -34 11 -21 15 -46 22 -75 22 -49 0 -88
-9 -88 -20 0 -9 112 -40 147 -40 30 0 82 -34 71 -45 -8 -8 -307 31 -343 45
-13 5 -48 10 -78 12 -30 2 -53 6 -51 10 4 7 -78 21 -211 38 -44 5 -115 14
-159 20 -43 5 -135 12 -205 16 -136 6 -171 10 -171 22 0 11 403 6 520 -7 85
-10 219 -30 275 -41 39 -8 50 23 13 35 -31 9 -36 10 -163 24 -60 6 -146 18
-190 26 -133 24 -310 35 -394 24 -47 -6 -219 -6 -451 -2 -268 6 -421 5 -535
-4z m-1224 -14869 c12 -14 11 -16 -5 -13 -11 2 -21 10 -24 17 -5 17 13 15 29
-4z"/>
<path d="M22657 29592 c-16 -7 -16 -10 -5 -19 23 -19 151 -69 208 -82 30 -7
96 -26 145 -41 50 -16 115 -30 146 -33 52 -4 58 -2 68 19 9 20 6 25 -22 42
-34 21 -103 43 -110 35 -3 -2 -27 6 -53 18 -101 44 -113 49 -121 47 -4 -1 -26
1 -48 5 -70 11 -189 16 -208 9z"/>
<path d="M23520 28666 c0 -2 9 -6 20 -9 11 -3 18 -1 14 4 -5 9 -34 13 -34 5z"/>
<path d="M25094 28460 c-37 -15 -39 -32 -8 -56 16 -13 37 -30 46 -38 9 -8 27
-20 40 -27 12 -7 28 -18 36 -25 32 -32 100 -84 110 -84 7 0 17 -9 24 -20 7
-11 21 -20 32 -20 11 0 17 -3 13 -6 -7 -7 17 -34 31 -34 5 0 17 -9 27 -20 10
-11 23 -20 30 -20 6 0 20 -8 31 -18 10 -9 48 -41 84 -70 36 -29 70 -56 76 -62
7 -5 14 -7 16 -5 4 5 138 -138 141 -151 2 -8 173 -182 204 -208 17 -14 26 -15
45 -6 21 10 21 10 5 -3 -16 -13 -14 -16 20 -39 21 -14 43 -26 48 -28 6 -1 24
-11 40 -23 l30 -20 -30 33 c-31 34 -17 33 21 -2 54 -48 25 67 -36 144 -45 57
-360 372 -429 428 -29 25 -61 48 -70 51 -9 4 -52 38 -95 75 -44 38 -109 91
-145 118 -36 27 -83 64 -103 82 -21 19 -54 40 -74 49 -39 16 -126 19 -160 5z"/>
<path d="M24000 28375 c19 -14 36 -25 39 -25 10 1 -53 50 -63 50 -6 0 5 -11
24 -25z"/>
<path d="M24815 27785 c51 -45 161 -122 151 -107 -8 13 -96 81 -156 120 -34
22 -34 22 5 -13z"/>
<path d="M25910 27657 c41 -42 81 -77 88 -77 7 0 -1 12 -20 27 -18 14 -58 49
-88 77 -37 34 -31 26 20 -27z"/>
<path d="M25535 27110 c10 -11 20 -20 23 -20 3 0 -3 9 -13 20 -10 11 -20 20
-23 20 -3 0 3 -9 13 -20z"/>
<path d="M25560 27076 c0 -2 8 -10 18 -17 15 -13 16 -12 3 4 -13 16 -21 21
-21 13z"/>
<path d="M15464 26978 c-105 -110 -264 -302 -264 -320 0 -8 109 122 142 170
16 23 73 87 157 175 25 26 43 47 40 47 -3 0 -37 -33 -75 -72z"/>
<path d="M20435 27024 c-329 -36 -470 -60 -685 -118 -199 -53 -437 -145 -620
-239 -167 -87 -546 -326 -580 -367 -3 -3 -25 -21 -50 -40 -124 -95 -387 -349
-461 -445 -22 -27 -73 -90 -114 -140 -222 -265 -449 -681 -565 -1033 -72 -217
-82 -255 -120 -437 -48 -235 -55 -320 -55 -710 1 -293 4 -381 18 -475 27 -171
53 -304 83 -410 14 -52 30 -111 35 -130 8 -33 23 -77 95 -270 34 -93 225 -470
307 -607 33 -56 106 -162 161 -236 87 -115 368 -490 542 -722 29 -38 72 -95
95 -125 59 -75 770 -1026 1061 -1417 334 -449 421 -565 519 -689 47 -60 112
-147 144 -194 32 -47 84 -116 115 -155 31 -38 89 -114 129 -167 40 -54 96
-118 124 -143 48 -42 55 -46 92 -41 22 3 48 6 58 7 23 0 92 68 137 134 46 69
357 494 423 580 30 39 140 185 245 325 105 140 223 298 263 350 170 224 917
1220 1034 1380 136 185 376 506 547 730 162 212 198 265 297 430 153 258 239
439 340 720 180 502 232 1176 132 1728 -38 206 -114 497 -154 584 -14 29 -32
76 -41 103 -28 83 -209 442 -294 581 -187 309 -285 425 -596 709 -264 241
-472 391 -736 532 -207 111 -263 139 -360 178 -173 71 -467 158 -670 199 -270
54 -628 70 -895 40z m675 -635 c473 -35 1051 -273 1449 -599 144 -118 396
-372 481 -485 14 -19 14 -19 -2 -6 -10 7 -18 9 -18 4 0 -5 12 -15 26 -22 15
-6 24 -15 20 -18 -3 -3 5 -21 19 -39 251 -330 455 -837 538 -1339 5 -33 10
-197 10 -365 1 -299 -11 -450 -43 -555 -5 -16 -18 -78 -29 -137 -34 -173 -118
-401 -236 -638 -73 -147 -239 -422 -281 -467 -18 -19 -39 -42 -46 -51 -11 -13
-11 -14 2 -7 65 39 -339 -365 -452 -451 -142 -109 -390 -271 -470 -308 -29
-14 -87 -40 -128 -59 -297 -138 -519 -205 -811 -246 -344 -48 -478 -49 -847
-5 -462 55 -832 197 -1259 485 -350 236 -607 505 -820 860 -62 103 -233 438
-233 457 0 7 -6 23 -14 35 -26 39 -97 259 -111 342 -4 21 -14 53 -22 69 -20
38 -40 181 -59 421 -24 308 4 685 71 940 103 390 289 767 544 1099 88 115 332
366 440 452 311 248 608 413 946 526 155 51 333 94 465 112 118 16 629 13 870
-5z"/>
<path d="M22341 25927 c2 -1 15 -11 29 -22 l25 -20 -19 23 c-11 12 -24 22 -29
22 -6 0 -8 -1 -6 -3z"/>
<path d="M22720 25566 c0 -2 8 -10 18 -17 15 -13 16 -12 3 4 -13 16 -21 21
-21 13z"/>
<path d="M22761 25563 c0 -5 17 -21 37 -37 l37 -30 -34 37 c-36 38 -42 42 -40
30z"/>
<path d="M22805 25480 c27 -27 51 -50 54 -50 3 0 -17 23 -44 50 -27 28 -51 50
-54 50 -3 0 17 -22 44 -50z"/>
<path d="M22885 25390 c10 -11 20 -20 23 -20 3 0 -3 9 -13 20 -10 11 -20 20
-23 20 -3 0 3 -9 13 -20z"/>
<path d="M18469 25343 l-24 -28 28 24 c25 23 32 31 24 31 -2 0 -14 -12 -28
-27z"/>
<path d="M18393 25248 c-56 -71 -96 -132 -71 -108 20 19 130 170 124 170 -2 0
-26 -28 -53 -62z"/>
<path d="M22980 25270 c17 -22 34 -40 37 -40 2 0 -10 18 -27 40 -17 22 -34 40
-37 40 -2 0 10 -18 27 -40z"/>
<path d="M20710 25219 c-25 -3 -63 -14 -85 -24 -22 -9 -78 -30 -125 -47 -47
-16 -182 -68 -300 -115 -118 -47 -253 -99 -300 -115 -47 -16 -119 -42 -160
-58 -41 -16 -138 -52 -215 -80 -77 -28 -185 -69 -240 -90 -55 -21 -183 -69
-285 -105 -102 -37 -243 -88 -315 -115 -71 -26 -188 -69 -260 -95 -152 -55
-209 -83 -249 -121 -25 -24 -28 -32 -23 -71 6 -54 29 -81 109 -123 59 -32 233
-100 318 -124 65 -19 148 -52 174 -70 23 -14 23 -19 30 -268 3 -139 7 -324 7
-410 1 -212 20 -367 48 -389 23 -19 99 -33 124 -24 31 12 38 102 44 537 6 396
7 428 24 433 26 8 187 -33 241 -63 26 -14 55 -36 63 -49 24 -37 129 -109 193
-133 75 -29 254 -93 367 -132 50 -17 160 -58 245 -90 85 -33 243 -92 350 -131
191 -71 197 -72 285 -71 91 1 94 2 250 69 31 13 175 71 210 85 11 4 70 28 130
53 61 25 142 57 180 71 39 15 79 31 90 36 11 5 67 27 125 49 259 97 444 188
456 224 3 9 12 17 20 17 9 0 12 5 8 13 -4 6 -4 9 0 5 5 -4 69 24 144 62 76 37
148 71 162 75 14 4 90 33 170 65 80 32 188 74 240 93 139 52 257 113 271 139
7 12 21 29 32 38 19 16 18 17 -24 64 -52 56 -67 65 -259 141 -80 31 -224 88
-320 127 -96 38 -233 92 -305 118 -264 99 -402 152 -460 179 -56 26 -141 59
-495 197 -80 31 -239 93 -355 139 -218 86 -260 96 -335 84z"/>
<path d="M23035 25200 c10 -11 20 -20 23 -20 3 0 -3 9 -13 20 -10 11 -20 20
-23 20 -3 0 3 -9 13 -20z"/>
<path d="M23067 25158 c4 -7 38 -58 74 -113 74 -111 180 -309 230 -428 17 -42
34 -76 36 -73 6 5 -51 145 -93 227 -60 120 -235 399 -250 399 -3 0 -1 -6 3
-12z"/>
<path d="M18274 25079 c-14 -22 -24 -43 -22 -44 2 -2 16 16 31 40 33 56 26 59
-9 4z"/>
<path d="M23410 24529 c0 -13 59 -162 60 -150 0 18 -40 133 -52 146 -4 5 -8 7
-8 4z"/>
<path d="M23485 24340 c-4 -17 -5 -34 -2 -36 2 -3 7 10 11 27 3 18 4 34 2 36
-2 3 -7 -10 -11 -27z"/>
<path d="M23502 24297 c-8 -9 -6 -33 7 -87 12 -50 20 -68 24 -56 11 28 8 64
-6 77 -7 7 -11 26 -9 46 4 36 1 40 -16 20z"/>
<path d="M23265 24220 c3 -5 11 -10 16 -10 6 0 7 5 4 10 -3 6 -11 10 -16 10
-6 0 -7 -4 -4 -10z"/>
<path d="M23260 24139 c-24 -36 -34 -44 -137 -109 -29 -18 -53 -35 -53 -37 0
-2 31 12 68 32 86 45 155 106 150 131 -3 16 -8 12 -28 -17z"/>
<path d="M19350 23582 c0 -12 7 -25 15 -29 27 -10 30 6 7 30 l-22 21 0 -22z"/>
<path d="M22140 23219 c-25 -4 -92 -27 -150 -52 -58 -24 -143 -59 -190 -77
-47 -18 -98 -39 -115 -46 -31 -12 -143 -55 -275 -105 -41 -15 -129 -49 -195
-75 -178 -68 -424 -154 -445 -154 -53 0 -313 86 -680 225 -96 36 -193 72 -215
80 -60 20 -227 84 -250 95 -11 5 -66 27 -123 49 -127 49 -146 46 -157 -26 -8
-54 -8 -291 1 -368 12 -113 68 -299 104 -350 4 -5 28 -49 53 -98 62 -117 105
-180 190 -279 74 -86 86 -98 196 -186 271 -218 606 -314 989 -284 272 21 506
99 698 232 362 249 571 610 614 1055 12 127 13 362 3 368 -5 2 -28 0 -53 -4z"/>
<path d="M22142 22468 c-14 -18 -64 -139 -59 -144 2 -2 16 24 32 59 15 34 32
70 37 80 10 20 5 23 -10 5z"/>
<path d="M22041 22253 c-10 -26 -10 -27 4 -9 8 11 15 23 15 28 0 15 -7 8 -19
-19z"/>
<path d="M21971 22139 c-23 -33 -37 -58 -32 -55 6 4 23 26 38 49 39 57 45 67
40 67 -2 0 -23 -27 -46 -61z"/>
<path d="M21839 21974 c-18 -20 -25 -31 -14 -24 18 11 61 60 52 60 -1 0 -19
-16 -38 -36z"/>
<path d="M21729 21863 l-24 -28 30 25 c17 14 32 26 34 28 2 1 0 2 -6 2 -5 0
-20 -12 -34 -27z"/>
<path d="M21669 21813 c-13 -16 -12 -17 4 -4 16 13 21 21 13 21 -2 0 -10 -8
-17 -17z"/>
<path d="M25646 26963 c31 -43 63 -85 72 -93 8 -8 -4 12 -28 45 -23 33 -52 75
-64 92 -11 18 -25 33 -29 33 -4 0 18 -35 49 -77z"/>
<path d="M15140 26578 c-23 -28 -27 -37 -13 -27 27 18 68 69 56 69 -4 0 -24
-19 -43 -42z"/>
<path d="M15084 26488 c-11 -13 -26 -32 -34 -43 -14 -19 -14 -19 3 -6 18 14
62 71 54 71 -2 0 -12 -10 -23 -22z"/>
<path d="M26035 26425 c145 -240 198 -325 202 -321 5 4 -169 291 -200 327
l-19 24 17 -30z"/>
<path d="M14984 26378 l-19 -23 23 19 c21 18 27 26 19 26 -2 0 -12 -10 -23
-22z"/>
<path d="M14949 26293 c-13 -16 -12 -17 4 -4 9 7 17 15 17 17 0 8 -8 3 -21
-13z"/>
<path d="M14665 25859 c-4 -6 -5 -12 -2 -15 2 -3 7 2 10 11 7 17 1 20 -8 4z"/>
<path d="M14506 25664 c-4 -14 -5 -28 -3 -31 3 -2 8 8 11 23 4 14 5 28 3 31
-3 2 -8 -8 -11 -23z"/>
<path d="M14319 25174 c-34 -71 -73 -158 -87 -194 -33 -87 -112 -333 -108
-338 2 -2 21 48 41 110 50 149 101 277 169 422 31 66 54 121 52 124 -3 2 -33
-54 -67 -124z"/>
<path d="M27936 24535 c8 -96 97 -481 115 -499 5 -6 9 -15 9 -20 0 -6 -5 -4
-11 4 -9 12 -10 11 -6 -5 9 -33 39 -119 49 -139 7 -12 6 -16 -1 -11 -7 4 -11
-4 -11 -19 0 -14 4 -27 9 -30 4 -3 14 -40 21 -83 7 -43 18 -84 24 -92 14 -17
35 -97 36 -133 0 -19 5 -28 16 -28 13 0 14 -3 4 -15 -6 -8 -9 -19 -5 -25 3 -6
8 -29 10 -52 3 -22 11 -51 20 -64 19 -29 19 -34 0 -34 -9 0 -12 -6 -9 -15 4
-8 11 -12 16 -8 7 4 9 -3 6 -19 -2 -13 2 -30 9 -37 10 -9 11 -16 4 -25 -6 -7
-7 -16 -3 -20 7 -8 9 -13 11 -43 1 -10 11 -23 24 -29 22 -10 23 -9 12 23 -5
18 -13 33 -17 33 -5 0 -8 7 -8 16 0 8 5 12 10 9 13 -8 13 28 0 95 -11 56 -18
147 -25 320 -4 97 -28 270 -40 290 -3 5 -16 50 -30 102 -13 51 -27 104 -31
118 -12 45 -73 198 -95 237 -12 21 -33 67 -46 103 -14 36 -31 72 -39 81 -9 9
-19 30 -24 45 -7 22 -8 14 -4 -31z m263 -988 c1 -5 -3 -5 -9 -2 -5 3 -10 16
-9 28 0 21 1 21 9 2 5 -11 9 -24 9 -28z"/>
<path d="M14091 24544 c0 -11 3 -14 6 -6 3 7 2 16 -1 19 -3 4 -6 -2 -5 -13z"/>
<path d="M14056 24425 c-9 -26 -7 -32 5 -12 6 10 9 21 6 23 -2 3 -7 -2 -11
-11z"/>
<path d="M17760 21446 c0 -2 8 -10 18 -17 15 -13 16 -12 3 4 -13 16 -21 21
-21 13z"/>
<path d="M13149 21438 c-5 -29 -4 -135 3 -173 5 -27 11 -95 14 -150 3 -55 13
-134 24 -175 10 -41 28 -114 40 -162 37 -150 89 -300 110 -320 16 -15 24 -16
40 -8 24 13 24 14 5 87 -14 53 -43 187 -96 447 -19 91 -39 164 -58 211 -5 11
-14 40 -21 65 -7 25 -15 52 -18 60 -3 8 -6 20 -7 25 -16 67 -32 109 -36 93z
m231 -968 c0 -5 -2 -10 -4 -10 -3 0 -8 5 -11 10 -3 6 -1 10 4 10 6 0 11 -4 11
-10z"/>
<path d="M23518 21299 c-51 -67 -115 -150 -143 -185 -119 -151 -202 -259 -224
-293 -13 -20 -49 -67 -79 -104 -30 -38 -52 -70 -49 -73 6 -6 67 69 129 156 25
36 72 99 104 141 379 495 367 479 360 479 -3 0 -47 -54 -98 -121z"/>
<path d="M17860 21313 c0 -6 8 -17 18 -24 16 -13 16 -13 2 6 -8 11 -16 22 -17
24 -2 2 -3 0 -3 -6z"/>
<path d="M17980 21153 c1 -4 17 -26 37 -48 36 -40 28 -25 -14 28 -13 16 -23
25 -23 20z"/>
<path d="M18060 21046 c0 -2 8 -10 18 -17 15 -13 16 -12 3 4 -13 16 -21 21
-21 13z"/>
<path d="M13316 20985 c3 -27 10 -57 15 -65 12 -21 10 -3 -6 60 l-15 55 6 -50z"/>
<path d="M14172 20980 c0 -14 2 -19 5 -12 2 6 2 18 0 25 -3 6 -5 1 -5 -13z"/>
<path d="M18140 20940 c12 -16 24 -30 26 -30 3 0 -4 14 -16 30 -12 17 -24 30
-26 30 -3 0 4 -13 16 -30z"/>
<path d="M13161 20944 c0 -11 3 -14 6 -6 3 7 2 16 -1 19 -3 4 -6 -2 -5 -13z"/>
<path d="M13342 20875 c0 -16 2 -22 5 -12 2 9 2 23 0 30 -3 6 -5 -1 -5 -18z"/>
<path d="M14191 20874 c0 -11 3 -14 6 -6 3 7 2 16 -1 19 -3 4 -6 -2 -5 -13z"/>
<path d="M18180 20886 c0 -2 8 -10 18 -17 15 -13 16 -12 3 4 -13 16 -21 21
-21 13z"/>
<path d="M14200 20826 c0 -8 4 -17 9 -20 5 -4 7 3 4 14 -6 23 -13 26 -13 6z"/>
<path d="M18240 20806 c0 -2 8 -10 18 -17 15 -13 16 -12 3 4 -13 16 -21 21
-21 13z"/>
<path d="M18270 20766 c0 -2 8 -10 18 -17 15 -13 16 -12 3 4 -13 16 -21 21
-21 13z"/>
<path d="M18351 20661 c29 -40 56 -74 61 -78 6 -3 -13 27 -42 66 -28 39 -56
73 -61 77 -6 3 13 -26 42 -65z"/>
<path d="M22945 20540 c-15 -22 -25 -43 -21 -47 3 -3 6 -1 6 5 0 6 6 17 13 24
37 40 49 58 40 58 -6 0 -23 -18 -38 -40z"/>
<path d="M18429 20552 c5 -10 18 -25 27 -33 11 -9 9 -2 -6 19 -26 35 -36 42
-21 14z"/>
<path d="M18494 20467 c16 -20 30 -37 33 -37 7 0 -36 58 -49 66 -7 4 1 -9 16
-29z"/>
<path d="M22861 20423 c-22 -26 -41 -52 -41 -58 1 -10 33 25 71 78 32 43 15
32 -30 -20z"/>
<path d="M13390 20430 c0 -5 5 -10 10 -10 6 0 10 5 10 10 0 6 -4 10 -10 10 -5
0 -10 -4 -10 -10z"/>
<path d="M22745 20263 c-31 -37 -37 -47 -16 -28 31 28 77 85 69 85 -2 0 -26
-26 -53 -57z"/>
<path d="M22634 20114 c-75 -83 -77 -87 -31 -44 39 35 103 110 94 110 -2 0
-31 -30 -63 -66z"/>
<path d="M18735 20150 c10 -11 20 -20 23 -20 3 0 -3 9 -13 20 -10 11 -20 20
-23 20 -3 0 3 -9 13 -20z"/>
<path d="M18790 20076 c0 -2 8 -10 18 -17 15 -13 16 -12 3 4 -13 16 -21 21
-21 13z"/>
<path d="M18820 20036 c0 -2 8 -10 18 -17 15 -13 16 -12 3 4 -13 16 -21 21
-21 13z"/>
<path d="M22504 19942 c-26 -32 -57 -77 -42 -62 41 42 89 100 82 100 -5 0 -23
-17 -40 -38z"/>
<path d="M18960 19850 c11 -16 26 -33 32 -36 7 -4 -1 9 -16 29 -34 44 -46 50
-16 7z"/>
<path d="M22400 19803 c-30 -36 -62 -76 -70 -89 -8 -12 -62 -85 -120 -160
-113 -149 -124 -164 -116 -164 3 0 39 44 79 98 126 167 170 225 229 300 52 66
63 82 56 82 -2 0 -28 -30 -58 -67z"/>
<path d="M19035 19750 c10 -11 20 -20 23 -20 3 0 -3 9 -13 20 -10 11 -20 20
-23 20 -3 0 3 -9 13 -20z"/>
<path d="M27096 19715 c-9 -26 -7 -32 5 -12 6 10 9 21 6 23 -2 3 -7 -2 -11
-11z"/>
<path d="M19071 19703 c7 -12 15 -20 18 -17 3 2 -3 12 -13 22 -17 16 -18 16
-5 -5z"/>
<path d="M19140 19606 c0 -2 8 -10 18 -17 15 -13 16 -12 3 4 -13 16 -21 21
-21 13z"/>
<path d="M27016 19540 c-22 -56 -19 -65 5 -11 11 24 18 46 15 48 -2 2 -11 -14
-20 -37z"/>
<path d="M19200 19526 c0 -2 8 -10 18 -17 15 -13 16 -12 3 4 -13 16 -21 21
-21 13z"/>
<path d="M19275 19430 c10 -11 20 -20 23 -20 3 0 -3 9 -13 20 -10 11 -20 20
-23 20 -3 0 3 -9 13 -20z"/>
<path d="M19320 19370 c12 -16 24 -30 26 -30 3 0 -4 14 -16 30 -12 17 -24 30
-26 30 -3 0 4 -13 16 -30z"/>
<path d="M22034 19318 c-62 -82 -73 -101 -36 -60 36 40 95 122 88 122 -3 0
-26 -28 -52 -62z"/>
<path d="M19400 19260 c12 -16 24 -30 26 -30 3 0 -4 14 -16 30 -12 17 -24 30
-26 30 -3 0 4 -13 16 -30z"/>
<path d="M19456 19185 c16 -22 29 -42 31 -44 2 -2 3 0 3 5 0 5 -14 25 -31 44
l-30 35 27 -40z"/>
<path d="M21903 19144 c-32 -41 -86 -111 -120 -154 -35 -44 -63 -82 -63 -86 0
-4 -27 -40 -61 -81 -33 -40 -56 -73 -50 -73 5 0 77 89 158 197 81 109 161 215
176 235 16 21 26 38 24 38 -3 0 -32 -34 -64 -76z"/>
<path d="M19660 18915 c0 -9 90 -125 97 -125 3 0 -7 17 -23 38 -44 59 -74 94
-74 87z"/>
<path d="M19780 18750 c12 -16 24 -30 26 -30 3 0 -4 14 -16 30 -12 17 -24 30
-26 30 -3 0 4 -13 16 -30z"/>
<path d="M21531 18647 c-37 -42 -42 -51 -17 -27 34 31 83 90 74 90 -2 0 -27
-28 -57 -63z"/>
<path d="M19831 18683 c7 -12 15 -20 18 -17 3 2 -3 12 -13 22 -17 16 -18 16
-5 -5z"/>
<path d="M19900 18596 c0 -4 16 -28 35 -53 19 -25 35 -43 35 -39 0 4 -16 28
-35 53 -19 25 -35 43 -35 39z"/>
<path d="M21428 18508 c-77 -86 -78 -88 -35 -48 38 34 103 110 95 110 -3 0
-30 -28 -60 -62z"/>
<path d="M27383 18418 c-20 -26 -83 -139 -74 -134 5 4 20 25 33 49 13 23 32
54 42 70 18 27 17 38 -1 15z"/>
<path d="M21324 18398 l-19 -23 23 19 c21 18 27 26 19 26 -2 0 -12 -10 -23
-22z"/>
<path d="M21312 18350 c-36 -43 -37 -55 -2 -17 20 21 44 57 38 57 -2 0 -18
-18 -36 -40z"/>
<path d="M21214 18248 l-29 -33 33 29 c17 17 32 31 32 33 0 8 -8 1 -36 -29z"/>
<path d="M20160 18254 c0 -5 13 -23 28 -39 30 -34 27 -25 -6 19 -12 16 -22 25
-22 20z"/>
<path d="M21204 18198 l-19 -23 23 19 c21 18 27 26 19 26 -2 0 -12 -10 -23
-22z"/>
<path d="M26218 18183 c-19 -23 -31 -43 -24 -43 2 0 14 14 26 30 23 33 22 40
-2 13z"/>
<path d="M20220 18166 c0 -2 8 -10 18 -17 15 -13 16 -12 3 4 -13 16 -21 21
-21 13z"/>
<path d="M21069 18023 l-24 -28 28 24 c15 14 27 26 27 28 0 8 -8 1 -31 -24z"/>
<path d="M14991 18013 c7 -12 15 -20 18 -17 3 2 -3 12 -13 22 -17 16 -18 16
-5 -5z"/>
<path d="M20969 17883 c-13 -16 -12 -17 4 -4 16 13 21 21 13 21 -2 0 -10 -8
-17 -17z"/>
<path d="M27006 17842 l-19 -27 24 22 c12 12 21 24 18 27 -2 2 -13 -8 -23 -22z"/>
<path d="M26730 17501 c-36 -37 -81 -80 -100 -95 -19 -15 -25 -23 -13 -17 29
15 138 116 164 152 11 16 19 29 17 28 -2 0 -32 -31 -68 -68z"/>
<path d="M15094 17395 c10 -16 30 -43 45 -59 16 -17 22 -30 15 -33 -13 -4 -7
-43 6 -43 4 0 15 10 23 23 l16 22 0 -22 c1 -12 -7 -27 -16 -32 -14 -8 -15 -13
-5 -19 7 -5 10 -16 7 -24 -11 -28 33 -86 157 -210 49 -49 97 -88 107 -88 10 0
24 -7 31 -15 11 -13 10 -14 -6 -9 -24 9 -24 9 106 -106 208 -183 270 -235 341
-288 31 -22 71 -54 90 -71 18 -17 39 -31 46 -31 7 0 13 -4 13 -9 0 -23 68 -50
127 -52 50 -2 64 2 82 20 19 19 20 25 9 38 -16 20 -123 105 -203 161 -33 24
-82 64 -110 90 -27 26 -70 63 -95 82 -25 19 -51 40 -58 47 -7 7 -18 13 -23 13
-5 0 -9 7 -9 15 0 8 -3 15 -7 15 -5 0 -25 16 -45 35 -22 21 -47 35 -62 35 -14
0 -26 5 -26 11 0 5 -29 39 -65 75 -38 37 -59 64 -50 64 9 0 13 5 10 11 -4 6
-13 8 -20 5 -7 -2 -21 5 -32 16 -17 20 -17 21 0 15 11 -4 16 -3 12 3 -3 6 -11
10 -17 10 -6 0 -32 21 -58 48 -57 59 -132 120 -167 139 -15 8 -41 29 -58 46
-34 36 -60 57 -102 84 l-28 18 19 -30z m247 -352 c13 -16 12 -17 -3 -4 -17 13
-22 21 -14 21 2 0 10 -8 17 -17z"/>
<path d="M24740 16775 c-30 -19 -51 -35 -46 -35 9 0 106 61 106 67 0 6 -6 3
-60 -32z"/>
<path d="M24630 16705 c-19 -14 -31 -25 -28 -25 9 0 78 41 78 46 0 9 -17 2
-50 -21z"/>
<path d="M25809 16633 c-13 -16 -12 -17 4 -4 9 7 17 15 17 17 0 8 -8 3 -21
-13z"/>
<path d="M23680 15330 c-9 -6 -10 -10 -3 -10 6 0 15 5 18 10 8 12 4 12 -15 0z"/>
<path d="M19508 14903 c7 -3 16 -2 19 1 4 3 -2 6 -13 5 -11 0 -14 -3 -6 -6z"/>
<path d="M32970 12378 c-62 -9 -236 -59 -272 -79 -10 -5 -29 -9 -43 -9 -15 0
-24 -4 -21 -9 4 -5 -7 -12 -24 -16 -43 -9 -174 -109 -241 -183 -105 -117 -168
-283 -168 -447 -1 -91 34 -227 79 -317 37 -74 117 -189 172 -248 249 -267 331
-368 421 -519 62 -103 72 -130 88 -241 23 -163 -14 -326 -102 -442 -87 -117
-168 -173 -321 -224 -105 -35 -115 -36 -212 -32 -168 9 -270 64 -328 180 -48
95 -36 252 25 342 35 51 38 133 6 162 -31 28 -195 26 -261 -4 -57 -25 -133
-94 -158 -142 -44 -85 -50 -220 -14 -323 26 -77 146 -184 265 -236 157 -69
446 -98 659 -66 94 14 116 19 215 48 96 29 244 93 265 117 3 3 25 21 50 39 84
64 234 224 267 286 103 195 121 407 53 606 -60 174 -141 279 -482 619 -327
328 -389 446 -342 660 16 77 23 91 78 159 101 123 196 181 336 204 197 31 359
-13 429 -118 20 -30 24 -49 24 -108 0 -106 -38 -165 -164 -254 -72 -50 -79
-58 -79 -88 0 -79 41 -116 139 -123 142 -9 251 46 331 167 63 94 83 162 78
261 -4 97 -40 171 -119 244 -91 85 -150 105 -374 131 -143 17 -160 17 -255 3z"/>
<path d="M28020 12339 c-383 -26 -637 -109 -786 -256 -128 -125 -160 -258
-109 -450 14 -52 32 -105 40 -117 15 -20 15 -20 15 9 2 267 7 288 78 360 94
96 217 149 430 185 278 47 464 58 731 43 l123 -6 -5 -32 c-8 -50 -55 -161
-108 -255 -62 -111 -136 -266 -194 -410 -26 -63 -55 -133 -65 -155 -219 -494
-378 -947 -439 -1253 -49 -243 -42 -337 34 -436 37 -49 72 -60 168 -53 95 7
214 51 295 110 47 35 123 112 192 196 19 23 43 51 53 62 13 14 17 29 13 45 -7
26 -25 33 -27 9 -1 -8 -2 -21 -3 -27 0 -7 -9 -14 -18 -16 -12 -2 -15 2 -11 16
2 11 0 23 -6 26 -7 4 -11 -1 -11 -14 0 -12 -4 -19 -9 -16 -5 4 -33 -14 -62
-39 -120 -102 -221 -53 -250 121 -10 61 -9 88 6 175 19 118 57 255 86 315 10
22 19 49 19 60 0 10 9 34 20 52 11 18 20 38 20 45 0 7 9 32 20 55 11 22 20 46
20 51 0 6 9 30 19 53 45 100 61 138 61 147 0 5 9 31 20 58 l20 48 -20 -25 -21
-25 6 25 c14 53 29 90 38 90 4 0 6 4 2 9 -3 6 2 14 10 19 16 8 60 101 110 227
13 33 54 128 93 210 164 356 227 466 276 485 13 5 170 9 349 9 190 0 362 5
414 12 94 12 217 53 290 96 75 43 133 143 84 143 -10 0 -63 -9 -117 -20 -159
-33 -319 -41 -593 -30 -135 6 -261 15 -280 20 -18 5 -95 14 -170 19 -75 6
-201 16 -281 22 -203 15 -423 19 -570 8z m301 -1456 c-12 -20 -14 -14 -5 12 4
9 9 14 11 11 3 -2 0 -13 -6 -23z m-21 -60 c-11 -17 -11 -17 -6 0 3 10 6 24 7
30 0 9 2 9 5 0 3 -7 0 -20 -6 -30z"/>
<path d="M4999 12336 c-2 -2 -177 -6 -389 -10 -952 -16 -962 -16 -1167 -75
-124 -36 -226 -88 -284 -145 -61 -60 -145 -166 -153 -193 -11 -35 2 -47 30
-29 13 9 33 16 44 16 11 0 23 7 26 15 4 8 13 15 22 15 8 0 23 6 31 14 27 23
181 87 281 116 52 16 116 35 141 44 25 9 102 25 170 36 68 10 152 24 186 31
59 10 103 6 103 -10 0 -4 -9 -16 -20 -26 -11 -10 -20 -21 -20 -25 0 -4 -24
-52 -54 -107 -76 -140 -234 -472 -304 -640 -97 -232 -123 -262 -252 -285 -70
-12 -119 -41 -139 -83 -21 -45 -5 -59 72 -65 112 -8 112 -3 24 -247 -147 -405
-193 -559 -242 -795 -23 -112 -25 -134 -15 -182 18 -86 27 -92 160 -105 181
-18 1312 -14 1415 5 160 30 306 105 359 184 14 22 37 57 51 78 30 45 32 73 7
95 -30 27 -45 21 -39 -13 6 -28 5 -29 -14 -17 -17 10 -22 9 -30 -5 -6 -10 -17
-18 -25 -18 -8 0 -31 -11 -52 -24 -93 -58 -280 -119 -467 -151 -55 -9 -102
-18 -105 -20 -11 -7 -330 -34 -460 -39 -299 -12 -395 40 -408 223 -4 56 2 93
32 212 32 124 138 454 165 514 5 11 17 45 27 75 9 30 23 64 29 75 7 11 18 36
24 56 6 20 23 46 36 59 24 23 25 23 377 26 430 3 602 10 628 24 25 13 53 67
46 86 -8 22 4 42 22 37 21 -5 60 22 49 34 -5 4 -240 8 -523 8 -283 0 -514 3
-514 6 0 48 239 515 383 749 22 36 55 90 74 120 51 84 105 152 140 176 46 31
131 45 278 47 123 2 133 1 180 -25 58 -30 133 -100 147 -137 5 -14 12 -70 15
-126 3 -55 10 -108 15 -118 11 -21 28 -13 28 14 0 10 4 19 10 19 16 0 62 88
107 204 64 168 59 266 -17 286 -36 10 -234 23 -241 16z"/>
<path d="M14259 12336 c-2 -3 -220 -7 -484 -11 -515 -6 -582 -9 -690 -26 -144
-24 -310 -117 -402 -227 -27 -31 -58 -68 -71 -82 -13 -14 -32 -43 -43 -65 -11
-22 -25 -48 -31 -57 -7 -9 -9 -21 -5 -25 5 -4 12 -1 16 6 5 7 21 15 37 17 16
1 33 10 40 18 6 9 16 16 21 16 5 0 34 19 64 41 68 52 173 103 264 130 39 11
97 29 129 40 77 26 141 39 246 49 47 4 124 14 172 21 65 10 91 10 99 2 8 -8
-10 -55 -70 -177 -44 -92 -81 -169 -81 -171 0 -3 -33 -71 -73 -152 -40 -82
-94 -198 -120 -260 -26 -61 -67 -153 -90 -205 -71 -153 -164 -376 -297 -707
-99 -247 -207 -561 -259 -751 -24 -85 -27 -159 -8 -165 28 -9 265 -11 288 -2
13 5 35 10 47 12 39 4 50 25 67 130 21 124 75 339 116 459 64 188 140 392 158
426 10 19 28 64 40 100 l21 65 100 0 c55 0 100 -3 100 -7 0 -12 59 -9 130 7
36 8 110 22 165 30 55 9 131 22 169 31 37 8 76 12 86 9 10 -3 51 6 92 20 40
15 93 33 118 41 25 9 63 23 85 33 22 10 51 22 65 26 35 11 137 63 174 89 70
48 172 145 218 206 67 88 130 224 162 347 30 117 32 152 11 258 -29 152 -110
260 -250 331 -118 60 -231 101 -310 113 -90 13 -211 22 -216 17z m4 -136 c31
-5 101 -28 155 -52 211 -92 283 -219 269 -472 -4 -74 -12 -121 -32 -176 -64
-177 -136 -276 -290 -395 -186 -145 -282 -189 -511 -235 -87 -18 -141 -22
-266 -22 -118 1 -158 -2 -158 -11 0 -7 -9 -18 -20 -25 -18 -11 -20 -10 -20 15
0 16 10 48 21 73 12 25 28 68 36 95 14 45 47 121 146 335 181 391 385 743 485
838 50 47 73 51 185 32z m-603 -1386 c0 -8 -4 -12 -10 -9 -5 3 -10 10 -10 16
0 5 5 9 10 9 6 0 10 -7 10 -16z"/>
<path d="M19317 12324 c-1 -1 -243 -5 -537 -7 -565 -6 -634 -11 -775 -57 -215
-69 -250 -92 -398 -265 -55 -64 -127 -185 -111 -185 8 0 176 112 193 128 33
32 196 98 311 127 36 9 88 25 115 35 83 32 415 80 453 65 15 -6 15 -8 -4 -23
-12 -9 -29 -37 -38 -62 -10 -25 -46 -99 -80 -165 -34 -66 -75 -149 -91 -185
-15 -36 -54 -119 -85 -185 -31 -66 -74 -158 -94 -205 -21 -47 -47 -107 -59
-133 -30 -69 -74 -103 -148 -118 -105 -21 -193 -109 -144 -145 10 -8 32 -14
48 -14 41 0 97 -29 97 -50 0 -10 -20 -69 -44 -132 -38 -97 -77 -197 -143 -373
-9 -22 -19 -53 -23 -70 -5 -16 -24 -84 -43 -150 -43 -147 -60 -251 -60 -375
-1 -90 14 -147 41 -164 28 -17 206 -28 477 -28 791 -1 943 2 1044 21 166 33
250 75 343 174 83 88 112 157 75 181 -13 8 -19 8 -25 -1 -4 -7 -26 -19 -49
-27 -22 -8 -58 -25 -79 -38 -145 -89 -338 -151 -539 -173 -33 -3 -96 -13 -140
-20 -44 -8 -87 -13 -95 -12 -8 1 -98 -3 -200 -8 -210 -10 -221 -10 -308 4 -49
8 -74 18 -107 46 -40 32 -44 40 -55 107 -27 155 20 331 246 934 50 134 87 161
192 145 92 -13 801 3 859 20 35 11 45 20 58 51 8 21 15 44 15 51 0 7 10 18 21
25 52 33 8 37 -364 37 -199 0 -421 1 -494 3 l-132 2 22 63 c67 193 453 890
531 961 71 64 70 63 242 71 l161 7 64 -30 c77 -35 143 -97 172 -160 18 -40 21
-64 19 -154 -3 -150 13 -153 79 -18 99 206 133 386 84 440 -31 34 -87 41 -296
39 -110 -2 -201 -4 -202 -5z"/>
<path d="M23708 12325 c-2 -2 -210 -5 -463 -9 -417 -5 -563 -13 -620 -31 -37
-13 -170 -69 -180 -78 -5 -4 -38 -27 -71 -52 -34 -24 -83 -71 -109 -104 -26
-34 -52 -61 -56 -61 -14 0 -10 -45 6 -66 21 -28 18 -40 -5 -19 -22 20 -25 20
-34 -13 -14 -45 21 -34 109 32 108 82 176 114 341 165 149 46 243 65 404 81
63 7 125 16 138 21 25 10 62 -4 62 -23 0 -6 -6 -19 -13 -27 -7 -9 -37 -70 -67
-136 -29 -66 -89 -194 -133 -285 -165 -344 -534 -1226 -636 -1521 -180 -524
-196 -590 -148 -603 12 -3 95 -6 183 -6 199 0 201 1 210 105 6 80 20 144 74
335 38 137 207 622 241 694 11 22 19 44 19 49 0 5 9 20 20 34 11 14 20 32 20
39 0 7 18 51 40 98 22 47 40 88 40 92 0 4 13 36 30 70 16 35 39 94 49 131 24
84 54 163 45 118 -3 -16 -3 -27 0 -24 13 12 55 132 50 140 -3 5 0 17 6 26 9
15 10 14 5 -7 l-6 -25 20 25 c11 13 17 28 15 32 -3 4 -1 8 5 8 6 0 18 23 28
50 10 28 21 50 25 50 5 0 8 7 8 15 0 9 21 52 46 97 26 45 59 109 74 142 15 34
49 90 76 126 27 36 64 88 81 115 45 71 90 112 105 97 7 -7 32 -12 56 -12 49 0
232 -45 277 -68 16 -8 45 -30 65 -48 19 -19 38 -34 41 -34 13 0 67 -95 78
-135 5 -22 13 -85 16 -141 6 -85 4 -114 -14 -183 -75 -287 -292 -466 -672
-551 -250 -56 -291 -70 -308 -107 -10 -22 -1 -98 20 -169 5 -17 9 -41 9 -55 0
-33 23 -105 49 -154 11 -23 22 -54 24 -70 2 -17 12 -50 24 -75 12 -25 29 -67
39 -95 31 -90 190 -408 243 -487 68 -101 172 -197 242 -223 46 -17 78 -20 214
-20 171 1 215 7 215 30 0 8 -31 50 -68 92 -196 224 -360 472 -521 789 -58 116
-70 145 -117 304 -51 170 -52 166 70 174 38 2 72 9 76 15 4 7 51 23 106 36 94
24 186 56 264 93 89 43 245 186 314 287 186 275 179 550 -19 723 -77 67 -271
154 -393 178 -64 12 -352 19 -364 9z m-1463 -345 c-3 -5 -11 -10 -16 -10 -6 0
-7 5 -4 10 3 6 11 10 16 10 6 0 7 -4 4 -10z m1138 -245 c-3 -9 -8 -14 -10 -11
-3 3 -2 9 2 15 9 16 15 13 8 -4z m-42 -86 c-10 -22 -24 -46 -31 -52 -7 -7 0
12 14 41 31 61 43 70 17 11z m-60 -116 c-12 -20 -14 -14 -5 12 4 9 9 14 11 11
3 -2 0 -13 -6 -23z"/>
<path d="M10279 12316 c-2 -3 -47 -7 -99 -11 -154 -10 -213 -48 -382 -243 -51
-59 -128 -143 -172 -188 -45 -44 -106 -107 -136 -140 -196 -212 -382 -405
-386 -401 -2 2 12 23 32 48 l36 44 -43 -46 c-24 -25 -64 -69 -89 -99 -26 -30
-51 -51 -57 -47 -14 9 -86 237 -112 357 -12 52 -37 169 -57 260 -49 227 -76
308 -121 364 -54 66 -108 89 -218 94 -83 4 -97 2 -175 -29 -47 -18 -103 -43
-125 -56 -22 -13 -48 -26 -57 -30 -10 -3 -18 -12 -18 -20 0 -8 -4 -12 -9 -9
-5 3 -8 -2 -7 -11 0 -10 -5 -18 -11 -19 -7 -1 -17 -2 -22 -3 -7 -1 -26 -16
-83 -66 -10 -8 -28 -15 -41 -15 -25 0 -95 -64 -79 -74 10 -6 102 40 171 86
l46 31 -29 -31 c-16 -18 -27 -34 -24 -37 3 -3 32 3 64 15 161 56 261 -9 319
-206 32 -110 125 -467 175 -674 27 -113 54 -221 60 -240 5 -19 10 -38 10 -42
0 -14 -177 -213 -220 -248 -24 -19 -161 -152 -304 -295 -144 -144 -283 -279
-311 -300 -70 -56 -400 -370 -420 -401 -9 -14 -14 -33 -10 -41 5 -14 22 -15
128 -9 67 3 135 9 150 12 23 5 172 127 157 129 -8 0 42 77 84 130 56 69 295
333 438 485 64 69 131 146 147 172 16 26 42 54 56 64 14 9 33 31 42 48 9 17
18 26 20 19 7 -19 -25 -64 -123 -173 -22 -25 -57 -68 -77 -97 -21 -28 -41 -53
-45 -55 -4 -2 -38 -39 -76 -83 l-70 -80 73 70 c40 39 127 137 194 220 148 181
194 232 202 224 12 -13 68 -192 120 -384 102 -383 137 -500 166 -570 51 -124
31 -115 250 -115 112 0 198 4 210 10 34 19 30 39 -79 335 -105 288 -212 627
-282 898 l-41 158 28 54 c41 78 83 126 328 366 245 240 323 313 375 348 41 29
110 91 234 210 48 47 94 86 101 86 7 0 30 23 52 50 22 28 74 81 116 118 43 38
75 73 71 78 -5 9 -37 13 -45 5z"/>
<path d="M10280 12205 c-24 -25 -42 -45 -39 -45 3 0 25 20 49 45 24 25 42 45
39 45 -3 0 -25 -20 -49 -45z"/>
<path d="M7939 12073 c-13 -16 -12 -17 4 -4 9 7 17 15 17 17 0 8 -8 3 -21 -13z"/>
<path d="M22175 11999 c-4 -6 -5 -12 -2 -15 2 -3 7 2 10 11 7 17 1 20 -8 4z"/>
<path d="M7933 11967 c-24 -11 -43 -25 -43 -29 0 -9 44 12 75 36 27 21 18 19
-32 -7z"/>
<path d="M22171 11942 c-6 -12 -11 -27 -11 -34 0 -7 7 0 15 16 9 16 13 31 11
33 -2 3 -9 -4 -15 -15z"/>
<path d="M37605 11947 c-55 -22 -150 -77 -179 -104 -16 -14 -35 -42 -43 -62
-8 -20 -21 -49 -28 -66 -7 -16 -29 -75 -48 -130 -47 -134 -182 -468 -209 -516
-34 -61 -47 -63 -326 -53 -136 5 -351 9 -479 9 l-232 0 -38 -37 c-21 -21 -53
-63 -70 -93 l-32 -55 529 1 c290 1 533 -2 539 -5 12 -8 -41 -165 -103 -305
-24 -53 -65 -148 -91 -211 -26 -63 -85 -190 -131 -282 -75 -150 -124 -268
-124 -299 0 -32 214 46 265 97 45 45 60 74 84 170 19 71 86 255 131 359 10 22
30 69 45 105 29 72 41 97 113 252 31 64 58 108 69 112 10 3 52 1 93 -4 139
-17 514 -32 702 -27 l188 5 49 32 c83 53 161 154 137 177 -8 8 -264 5 -277 -3
-10 -6 -168 -5 -399 2 -63 2 -180 5 -260 7 -118 3 -146 7 -148 19 -1 8 11 51
28 97 30 81 40 104 120 276 23 50 50 111 61 137 10 25 52 115 94 200 86 173
91 202 35 205 -19 1 -48 -3 -65 -10z"/>
<path d="M2973 11849 c-2 -21 2 -27 12 -22 18 6 20 39 3 46 -8 3 -14 -6 -15
-24z"/>
<path d="M22138 11863 c-3 -10 -9 -26 -13 -36 -6 -15 -4 -16 21 -7 28 11 28
11 9 -9 -10 -12 -14 -21 -8 -21 5 0 18 9 28 20 18 20 18 21 -7 46 -23 24 -26
24 -30 7z"/>
<path d="M22183 11788 c-20 -26 -26 -41 -15 -34 12 7 36 46 29 46 -3 0 -9 -6
-14 -12z"/>
<path d="M23398 11695 c-25 -34 -22 -43 3 -11 12 15 20 29 18 31 -2 1 -12 -7
-21 -20z"/>
<path d="M9319 11593 c-13 -16 -12 -17 4 -4 16 13 21 21 13 21 -2 0 -10 -8
-17 -17z"/>
<path d="M9469 11493 l-24 -28 28 24 c15 14 27 26 27 28 0 8 -8 1 -31 -24z"/>
<path d="M9347 11350 c-89 -88 -172 -167 -184 -175 -12 -9 -32 -30 -45 -48
-13 -19 15 2 67 50 110 100 342 333 333 333 -4 0 -81 -72 -171 -160z"/>
<path d="M8269 10533 l-34 -38 38 34 c20 19 37 36 37 38 0 8 -8 0 -41 -34z"/>
<path d="M8079 10043 c-91 -96 -219 -247 -219 -259 0 -5 7 -1 15 10 8 10 27
32 42 50 15 17 35 41 43 53 8 12 57 67 109 122 51 56 91 101 88 101 -2 0 -38
-35 -78 -77z"/>
<path d="M5085 10020 c-3 -10 2 -34 11 -51 16 -31 17 -32 30 -14 18 24 17 30
-1 45 -8 7 -15 19 -15 26 0 21 -18 17 -25 -6z"/>
<path d="M19660 10013 c0 -17 5 -35 10 -38 13 -8 13 35 0 55 -7 11 -10 7 -10
-17z"/>
<path d="M28500 9968 c0 -19 2 -20 10 -8 13 19 13 30 0 30 -5 0 -10 -10 -10
-22z"/>
<path d="M26037 8020 c-7 -3 -14 -12 -16 -20 -12 -39 -18 -858 -8 -888 8 -23
54 -48 65 -37 4 3 7 94 8 202 2 152 5 198 16 204 19 12 255 11 279 -1 10 -6
19 -17 19 -24 0 -8 7 -19 15 -26 8 -7 13 -16 10 -20 -2 -4 10 -23 28 -41 18
-19 36 -42 40 -51 3 -10 11 -18 16 -18 5 0 12 -11 15 -25 3 -13 19 -40 35 -58
17 -18 33 -46 37 -61 4 -19 17 -33 40 -42 65 -27 71 -11 21 62 -37 56 -154
241 -179 283 l-16 28 72 36 c78 39 89 52 112 147 22 89 18 171 -9 211 -29 43
-107 95 -166 109 -118 29 -288 39 -310 18 -9 -8 -12 -9 -7 -1 4 8 -11 12 -49
15 -31 1 -61 1 -68 -2z m318 -78 c117 -7 122 -8 162 -40 43 -34 57 -63 68
-144 6 -50 -16 -121 -46 -144 -40 -31 -189 -42 -377 -27 l-84 6 7 26 c4 14 9
84 10 154 3 95 7 134 19 152 16 25 54 36 96 28 14 -3 79 -8 145 -11z"/>
<path d="M10525 8009 c-27 -5 -61 -11 -75 -13 -43 -6 -80 -25 -80 -41 0 -17
-17 -20 -22 -4 -2 7 -9 5 -17 -5 -11 -14 -11 -16 2 -16 19 0 11 -36 -10 -44
-11 -4 -13 -1 -8 14 9 27 -14 26 -41 -3 -49 -53 -71 -103 -78 -172 -1 -5 -10
-34 -20 -64 -31 -89 -10 -229 39 -263 7 -5 12 49 15 162 3 116 9 173 18 182 6
6 12 20 12 30 0 10 7 18 15 18 9 0 20 11 25 25 5 14 14 25 20 25 5 0 10 7 10
16 0 20 28 43 52 44 10 0 52 12 95 26 45 15 101 26 133 26 55 1 71 -5 227 -81
18 -8 35 -12 39 -8 4 4 2 7 -4 7 -7 0 -12 7 -12 15 0 8 -6 12 -14 9 -19 -7
-32 16 -15 27 11 6 9 12 -8 29 -56 51 -189 78 -298 59z m-225 -149 c0 -19 -11
-26 -23 -14 -8 8 3 34 14 34 5 0 9 -9 9 -20z"/>
<path d="M15140 8004 c-30 -7 -56 -11 -58 -9 -3 2 -11 -2 -19 -10 -8 -8 -26
-18 -41 -21 -15 -4 -46 -22 -69 -40 -63 -51 -88 -144 -63 -235 11 -38 78 -109
104 -109 8 0 16 -5 18 -11 4 -12 126 -46 282 -80 119 -26 197 -83 210 -151 17
-95 -121 -188 -279 -188 -115 0 -211 36 -284 107 -39 37 -57 41 -66 14 -12
-39 40 -110 111 -148 40 -22 188 -52 254 -52 111 -1 219 42 292 115 50 50 60
85 47 167 -11 66 -26 93 -67 124 -42 31 -172 94 -181 89 -5 -3 -34 1 -65 9
-31 8 -72 17 -91 19 -52 7 -153 56 -180 88 -14 16 -30 47 -36 68 -10 34 -9 46
6 80 23 51 80 103 131 121 22 8 77 14 124 14 98 0 135 -14 218 -82 60 -48 67
-50 76 -26 10 24 -81 106 -136 122 -23 8 -60 20 -81 27 -45 17 -83 16 -157 -2z"/>
<path d="M21459 8008 c-1 -7 -1 -19 0 -25 1 -7 -3 -13 -10 -13 -8 0 -10 -12
-5 -37 3 -21 11 -215 16 -432 6 -218 15 -402 21 -413 5 -10 21 -18 35 -18 l25
0 -7 168 c-4 97 -3 164 2 159 5 -5 12 -68 15 -140 l5 -132 2 156 2 156 138 6
c169 7 206 17 273 74 73 62 92 95 110 197 11 56 10 71 -5 109 -9 25 -26 53
-36 62 -11 10 -20 23 -20 30 0 20 -55 53 -126 75 -88 27 -264 40 -264 19 0
-11 -2 -12 -9 -1 -7 11 -11 11 -22 -1 -12 -12 -17 -12 -27 0 -17 17 -112 18
-113 1z m326 -73 c89 -4 104 -8 140 -33 32 -22 44 -40 60 -87 11 -33 24 -63
29 -66 13 -10 -2 -74 -26 -104 -17 -22 -56 -45 -78 -47 -3 0 -26 -8 -52 -18
-37 -14 -68 -17 -160 -14 -160 6 -162 7 -155 52 4 20 8 80 11 132 5 83 4 88
-5 41 -14 -78 -23 -78 -14 -1 5 36 9 79 9 96 3 54 22 67 86 60 30 -4 100 -9
155 -11z"/>
<path d="M35451 8002 c-20 -16 -21 -28 -28 -322 -10 -443 -9 -501 14 -557 14
-35 37 -43 47 -18 3 8 6 84 6 168 1 83 6 167 11 185 l11 32 110 0 c101 0 115
-2 155 -25 23 -14 43 -30 43 -35 0 -5 13 -24 28 -42 16 -18 46 -62 68 -98 21
-35 46 -72 54 -81 8 -9 29 -33 46 -53 19 -22 39 -36 48 -34 14 2 7 20 -35 93
-28 50 -73 122 -98 160 -64 95 -65 100 -34 125 14 11 30 20 36 20 20 0 78 52
104 93 22 34 27 57 31 123 4 73 2 86 -23 137 -50 101 -114 124 -380 133 -82 2
-160 7 -171 9 -12 3 -31 -3 -43 -13z m295 -65 c86 -3 129 -9 155 -22 50 -24
80 -81 87 -160 4 -54 1 -69 -18 -100 -12 -20 -32 -42 -44 -50 -43 -27 -241
-51 -346 -40 -58 6 -69 10 -82 33 -11 20 -13 36 -6 62 4 19 8 73 7 120 -3 124
-1 138 20 159 16 16 26 17 64 10 25 -4 98 -10 163 -12z"/>
<path d="M38045 8010 c-58 -7 -110 -23 -180 -56 -36 -17 -57 -36 -76 -67 -66
-109 -63 -159 11 -240 75 -82 193 -128 429 -168 68 -11 104 -43 131 -117 l21
-54 -29 -51 c-23 -40 -41 -57 -85 -80 -52 -28 -65 -30 -165 -30 -126 -1 -195
19 -250 70 -19 18 -38 30 -43 27 -5 -3 -20 6 -34 20 -33 33 -45 33 -45 -2 0
-29 39 -69 125 -128 83 -57 261 -82 356 -49 161 56 222 129 213 257 -8 119
-73 173 -274 228 -147 39 -184 52 -238 82 -70 40 -92 70 -92 125 0 109 92 176
257 190 78 6 138 -5 210 -40 51 -24 63 -18 32 17 -44 51 -164 80 -274 66z"/>
<path d="M3171 7985 c-24 -14 -50 -25 -58 -25 -24 0 -99 -85 -106 -120 -26
-127 17 -222 123 -273 19 -9 85 -28 145 -42 231 -55 234 -56 282 -99 38 -35
46 -48 50 -87 14 -122 -120 -207 -308 -197 -90 6 -137 23 -234 90 -29 19 -48
25 -67 21 -36 -7 -35 -17 5 -56 83 -82 204 -121 372 -121 109 0 161 20 228 87
72 72 83 157 36 268 -34 78 -90 108 -265 143 -151 30 -254 79 -280 134 -44 92
-23 174 55 218 49 27 51 28 177 39 77 7 83 6 145 -23 36 -17 80 -45 98 -63 24
-22 36 -28 44 -20 16 16 -11 60 -53 85 -73 45 -122 58 -235 62 -102 4 -113 2
-154 -21z"/>
<path d="M6010 7753 c0 -247 -10 -404 -31 -468 -14 -45 -92 -108 -153 -122
-89 -21 -193 -16 -254 12 -79 37 -135 99 -150 165 -6 30 -11 69 -11 85 4 131
-6 557 -14 562 -5 3 -14 0 -20 -6 -16 -16 -19 -373 -3 -383 7 -5 7 -8 -3 -8
-11 0 -11 -3 0 -16 7 -9 9 -18 3 -22 -13 -10 -10 -131 6 -224 14 -90 35 -123
115 -183 78 -58 161 -74 298 -59 47 5 78 14 100 30 18 13 41 28 52 33 48 22
84 85 109 194 4 15 9 105 11 200 2 95 7 227 11 295 4 79 3 126 -4 135 -6 6
-11 17 -11 22 0 6 -12 11 -26 13 l-25 3 0 -258z"/>
<path d="M8100 8004 c0 -5 -17 -10 -39 -10 -49 -2 -81 -19 -81 -44 0 -11 -5
-20 -11 -20 -6 0 -9 7 -5 15 18 49 -80 -28 -134 -105 -51 -71 -51 -72 -50
-302 l0 -217 32 -51 c45 -73 142 -142 245 -176 80 -26 86 -27 169 -15 144 20
249 87 253 162 1 29 -3 38 -19 42 -12 3 -20 0 -20 -8 0 -24 -77 -90 -126 -108
-63 -22 -184 -23 -250 0 -150 51 -214 165 -214 382 0 137 11 241 25 241 19 0
26 29 14 52 -6 11 -8 22 -5 25 3 3 11 -6 17 -21 15 -31 29 -34 29 -5 0 13 8
23 20 26 11 3 23 16 26 30 5 17 10 21 17 14 22 -22 39 -12 32 19 -7 34 10 42
20 10 8 -24 18 -25 36 -4 7 8 21 13 31 11 9 -3 35 -1 55 4 51 12 146 -6 194
-37 21 -13 45 -24 53 -24 7 0 19 -7 26 -15 16 -19 50 -20 50 -1 0 20 -63 70
-125 100 -39 20 -73 27 -158 32 -61 4 -107 3 -107 -2z m-168 -116 c-7 -7 -12
-8 -12 -2 0 14 12 26 19 19 2 -3 -1 -11 -7 -17z"/>
<path d="M12615 7990 c-2 -8 -5 -107 -5 -220 0 -113 -1 -214 -2 -225 -1 -11 0
-63 1 -115 2 -75 5 -89 12 -65 5 17 10 46 11 65 1 22 11 44 25 58 23 21 30 22
228 22 217 0 235 4 235 51 0 16 -7 19 -42 20 -255 3 -410 8 -414 12 -3 3 -10
23 -15 44 -9 41 7 278 21 302 6 12 42 15 176 17 93 1 211 3 261 4 96 1 115 9
89 35 -23 23 -574 18 -581 -5z"/>
<path d="M17465 8003 c-16 -3 -33 -9 -36 -15 -4 -6 -26 -12 -50 -15 -80 -9
-163 -88 -176 -167 -8 -50 15 -142 44 -177 30 -35 82 -64 155 -84 29 -8 78
-21 108 -29 30 -9 82 -21 114 -27 115 -21 194 -83 202 -157 3 -27 -38 -99 -70
-122 -62 -44 -92 -54 -186 -58 -88 -4 -101 -2 -178 28 -57 22 -97 45 -130 76
-26 24 -50 44 -54 44 -12 0 -10 -68 2 -91 6 -10 17 -19 26 -19 8 0 17 -7 20
-15 12 -31 207 -110 247 -100 12 3 54 8 92 10 195 11 294 94 295 247 0 101
-29 142 -140 197 -65 32 -89 39 -230 66 -107 21 -178 59 -217 118 l-32 47 22
53 c27 68 64 116 93 123 13 3 49 16 80 29 44 18 63 21 82 14 29 -11 37 -6 29
16 -6 15 -43 18 -112 8z"/>
<path d="M23940 8001 c-15 -4 -29 -18 -35 -36 -5 -17 -12 -32 -15 -35 -3 -3
-6 -20 -8 -39 -1 -19 -7 -40 -13 -47 -6 -7 -8 -18 -4 -24 3 -5 -1 -10 -9 -10
-20 0 -29 -19 -51 -105 -10 -38 -24 -77 -31 -85 -7 -8 -22 -43 -33 -77 -20
-60 -26 -75 -69 -173 -11 -25 -25 -65 -32 -90 -7 -25 -21 -64 -32 -87 -20 -41
-19 -93 2 -93 24 0 67 58 74 100 10 63 34 107 70 129 27 17 54 20 227 22 l197
3 36 -28 c51 -38 68 -69 77 -134 6 -41 14 -61 31 -74 51 -39 77 7 36 64 -26
36 -45 81 -59 143 -10 40 -58 159 -100 244 -11 24 -28 67 -36 95 -8 28 -32 88
-54 133 -21 44 -39 90 -39 101 0 31 -37 87 -66 100 -27 13 -28 13 -64 3z m59
-93 c19 -20 51 -108 51 -141 0 -7 13 -32 28 -53 30 -41 44 -69 48 -94 1 -8 10
-42 19 -75 30 -103 30 -104 4 -109 -13 -2 -100 -4 -194 -3 -144 2 -170 4 -169
17 2 20 76 259 106 340 23 65 67 140 80 140 4 0 16 -10 27 -22z"/>
<path d="M28424 7999 c-3 -6 4 -13 16 -16 14 -4 19 -11 15 -22 -6 -15 -5 -15
10 0 20 20 53 11 124 -33 44 -28 45 -28 65 -9 22 20 93 44 107 35 4 -2 10 0
14 6 8 13 42 13 47 0 4 -12 118 9 118 22 0 4 -9 12 -21 18 -23 13 -169 10
-169 -4 0 -5 -6 -4 -13 3 -18 14 -304 14 -313 0z"/>
<path d="M33110 7995 c-8 -10 -14 -63 -16 -153 -2 -86 0 -128 5 -112 7 18 9 4
10 -55 0 -58 -2 -76 -10 -65 -7 11 -9 -66 -7 -257 2 -150 7 -275 11 -279 4 -4
33 0 64 10 49 16 95 18 310 18 187 0 255 4 263 13 7 9 3 15 -16 24 -14 6 -29
9 -34 6 -4 -3 -88 -7 -186 -9 -165 -4 -301 7 -330 26 -6 4 -9 62 -7 165 2 135
5 160 20 171 12 9 76 12 234 12 231 0 235 1 222 48 -5 19 -14 20 -223 24 -163
2 -222 6 -232 16 -9 9 -14 58 -16 166 -3 135 -2 154 14 167 31 26 107 35 284
33 179 -2 240 2 240 16 0 13 -66 31 -83 22 -5 -2 -52 -5 -105 -7 -53 -2 -137
-6 -185 -10 -48 -3 -93 -2 -99 1 -7 4 -26 9 -43 11 -16 1 -40 5 -51 8 -13 3
-27 -2 -34 -10z m5 -425 c3 -5 1 -10 -4 -10 -6 0 -11 5 -11 10 0 6 2 10 4 10
3 0 8 -4 11 -10z m14 -282 c1 -66 -3 -108 -9 -108 -6 0 -9 65 -8 178 1 137 3
161 8 107 4 -38 8 -118 9 -177z"/>
<path d="M17593 7988 c2 -7 10 -13 18 -13 8 0 50 -22 93 -49 63 -39 80 -46 88
-35 7 10 8 8 3 -8 -7 -24 1 -28 23 -14 9 6 0 20 -35 54 -49 48 -102 74 -128
63 -9 -3 -27 -1 -41 4 -20 8 -25 7 -21 -2z"/>
<path d="M30660 7980 c-7 -12 -9 -73 -6 -162 5 -187 5 -178 14 -178 5 0 8 37
8 83 0 76 2 86 37 148 20 36 37 72 37 80 0 15 -48 49 -69 49 -6 0 -15 -9 -21
-20z"/>
<path d="M31316 7991 c-4 -6 -12 -147 -18 -314 -5 -166 -14 -308 -18 -316 -4
-8 -3 -29 2 -48 12 -44 6 -128 -9 -128 -6 0 -25 19 -42 43 -17 23 -38 42 -46
42 -19 0 -19 0 2 -52 39 -100 87 -147 134 -133 18 6 19 25 19 448 0 406 -5
490 -24 458z"/>
<path d="M28613 7862 c-6 -10 -9 -38 -6 -63 2 -24 7 -120 11 -214 10 -247 27
-216 28 52 1 120 -1 224 -4 231 -6 17 -15 15 -29 -6z"/>
<path d="M10887 7835 c-8 -19 13 -31 23 -14 9 14 4 29 -10 29 -4 0 -10 -7 -13
-15z"/>
<path d="M30656 7557 c1 -104 3 -129 12 -123 4 2 7 44 6 93 -2 104 -2 103 -11
103 -5 0 -8 -33 -7 -73z"/>
<path d="M31026 7502 c-3 -5 4 -16 15 -25 10 -9 19 -26 19 -37 0 -11 7 -23 15
-26 8 -4 15 -14 15 -24 0 -18 28 -36 39 -25 3 3 0 14 -6 23 -7 9 -22 35 -33
58 -22 41 -55 70 -64 56z"/>
<path d="M28622 7350 c0 -27 4 -50 9 -50 5 0 9 23 9 50 0 28 -4 50 -9 50 -5 0
-9 -22 -9 -50z"/>
<path d="M12652 7370 c0 -14 2 -19 5 -12 2 6 2 18 0 25 -3 6 -5 1 -5 -13z"/>
<path d="M10246 7303 c3 -16 17 -38 30 -50 13 -12 24 -24 24 -26 0 -3 19 -25
43 -50 73 -80 200 -117 305 -90 31 8 72 17 90 20 17 3 32 9 32 14 0 5 8 9 19
9 21 0 107 79 135 123 10 16 14 36 11 48 -9 28 -31 17 -27 -13 3 -33 -14 -78
-30 -78 -9 0 -9 3 0 12 18 18 15 55 -5 62 -19 8 -62 -38 -63 -68 0 -14 -5 -17
-24 -12 -13 3 -26 2 -28 -2 -2 -4 -26 -18 -55 -30 -94 -40 -262 -25 -344 31
-18 12 -49 46 -69 75 -39 58 -53 66 -44 25z"/>
<path d="M12613 7285 c0 -22 2 -30 4 -17 2 12 2 30 0 40 -3 9 -5 -1 -4 -23z"/>
<path d="M12656 7303 c-6 -14 -5 -15 5 -6 7 7 10 15 7 18 -3 3 -9 -2 -12 -12z"/>
<path d="M28620 7265 c0 -14 4 -25 8 -25 4 0 9 11 10 25 1 14 -3 25 -8 25 -6
0 -10 -11 -10 -25z"/>
<path d="M12631 7189 c-21 -8 -23 -14 -18 -45 4 -20 8 -38 10 -41 3 -2 139 -4
302 -4 204 0 301 3 309 11 8 8 7 13 -2 19 -17 10 -226 21 -419 21 l-152 0 -3
24 c-3 20 -6 22 -27 15z"/>
</g>
</svg>
